<svg xmlns="http://www.w3.org/2000/svg" xmlns:xlink="http://www.w3.org/1999/xlink" viewBox="0 0 500 321">
  <g id="Layer_1" data-name="Layer 1" style="isolation: isolate" fill="transparent">
    <path d="M375,299v3c-6.65-.14-8.35-.14-15,0v-3c-3.14.67-3.85,3.13-8,2-1-.27-1-3.07-4-2-.19.07-2,3.65-6,2v-2h-1c-2.2-.18-4.39,2.08-10,1v3l-36,1c-1.31-.29-6.3-2.37-8-2-.33.67-.67,1.33-1,2-3.4,1-5.69-1.29-8-1-6.17.77-9.22,2.41-17,1v3c-13.4.18-24.39,2.19-39,2l-16-2v2c-3.93,1.44-5-2-5-2-4.54-1.48-4,3.93-9,2-1-.39.32-2.66-3-2-1.18.24-2.34,3-6,2-1.11-.29-.38-2.38-3-2-1,.15-1.67,2.49-5,2-2-.3-1.24-2.39-4-2-.72.1-.84,1.89-3,2-3.68.19-3-2.44-6-2l-1,2c-1.28.38-13.63.37-15,0v-2c-2.72-.58-4.49,3.84-9,2-1.11-.45,1.19-1.59-1-2s-4.87,2.4-8,1v-2c-2.71-.6-4.5,3.85-9,2v-2c-2-.69-5.73,2.4-9,1v-2c-1.94-.69-4.88,2.34-8,1v-2c-3-.77-2.28,2.64-6,2-13-2.25-28.16-4.43-42-8-18.7-4.83-38-5.1-46-20-5-9.23-2.22-26.79-1-35,1.83-1.29,1.71-2,4-3,4.74-2.79,32,6.32,39,8l14,1c25.45,6.78,58.52,10,89,10,47.62,0,98.91-3,135-16l16-1c13.31-3.42,31.88-3.78,46-7,13.28-3,22.37,1.61,34-1,20.46-4.6,50.58-3.42,72-9,7.22-1.88,13.57-.38,20-3,4.27-1.74,10.76-6.38,15-9,2.07,17.55,11.37,52.58,2,67-5.24,8.07-15.94,11.73-27,14l-5-1-3,3c-3.08.61-2-2.83-5-2,0,0-2.35,3.37-5,3-.9-.13-.49-2.58-3-2v2c-1.12.52-38.64,5.36-44,4-.91-.23-4.73-2.93-5-3-3.33-.82-2,1.56-3,2C390.1,301.25,378.34,299.38,375,299Z" fill-rule="evenodd"/>
  </g>
  <g id="Layer_2" data-name="Layer 2" style="isolation: isolate" fill="transparent">
    <path d="M299,147c.35,12.09,4.88,24.59,17,25,5.6,3.63,26.7-4,32-6,3.91-1.45,11.73-3.28,15-6,1.26-1.05,1.18-3.24,3-4,3.66-1.53,6-.43,9-2,2.12-1.12,4.64-4.26,7-5l5,1c5.68-1.32,11.86-6.76,17-9,9.31-4.06,17.33-6.52,26-11,7.53-3.89,16-8,23-13l5-5c1.88-.68.7-1.32,2,0,3.2,2,6.67,5.11,8,9-18.32,21.28-43.61,32.71-68,48-3.46,2.17-8.27,4.39-12,7l-5,7c-2.18,1.06-5.39-1-9,1-6.82,3.84-33.91,20.46-39,20-6.3-.57-21.85,9.09-29,11-9.75,2.61-16.67-2.54-23-4-5.3-10.28-7.92-16.57-8-31C282.05,173.82,289.44,147.8,299,147Z" fill-rule="evenodd"/>
  </g>
  <g id="Layer_3" data-name="Layer 3" style="isolation: isolate" fill="transparent"> 
    <path d="M206,196h4c2.68,4,17.32,16.38,23,17v3c4,2.25,11.65,6.22,14,10,4.1,6.59,5.44,20.07,9,24-1.29.88-2.47.89-5,1-9.16,5.88-28.25,2.24-41,5-8.62,1.86-20.68,2.19-32,2l-8-1c-31.66,4.57-80.21-1.06-106-8-13.7-3.69-49.55-2.41-50-17,3.53-5.17,1.93-11.91,5-18,1.34-2.65,5.27-3.86,7-7a43.67,43.67,0,0,0,16,7l8-1c1.63.43,4.06,3.42,6,4H67c17.07,5.2,40.34,5.15,56,1,4.35-1.15,18,1.92,21,3,7.22,2.59,16.12-1.89,21-3,2.41-3.85,3.14-6.82,3-14,2.89-4.35-.46-12-1-17h3c.63-3.49,19.64-2.17,27-2,1.52-1.05,4.91-1.59,7-2C204.75,187.42,206,189.81,206,196Z" fill-rule="evenodd"/>
  </g>
  <g id="Layer_4" data-name="Layer 4" style="isolation: isolate" fill="transparent">
    <path d="M344,110c8.6.38,19,4.19,23,6l4-1v2c3.5,1.64,7-1,9,0v2c2.23,1.57,4.71,1.28,7,3,1.95,1.47,2.91,5.79,5,7h4c3.64,1.88,6,5.9,10,8v2c-25.51,11.47-50,26.34-82,34-6.84,1.64-11.7-1.79-18-2-1.49-4.35-5-9.85-6-14s2-5.68,0-9c-1.18-.8-1.68-.77-4-1-3.17,15-17.5,21.93-21,36-1.67,6.69,3.42,18.85,5,25,5.93,1.85,8,6.43,15,8,12.46,2.8,22.71-5.78,30-9,15.73-6.94,31.11-10.4,45-19,7.31-4.53,15.5-12.09,23-16,5.81-3,10.11-2.31,15-4,8.21-2.83,20.7-19.52,28-2,1.7,2.64.38,5.31,0,9a97,97,0,0,0-8,6v2c-3.27,2.4-7.16,1.09-11,3-1.56.78-4.32,4-6,5-6.27,3.68-14.64,4.36-20,9-9.5,8.22-13.15,19.88-18,33-27.33,2.66-53.81,5-79,9-14.86,2.35-22.53,5.87-36,7-7-9.26-12.49-25.34-22-32-17.66-12.37-25.79-11.57-32-34,8.75-3,12.54-13,20-17,9.88-5.35,26.3-.33,35-6s12.62-19,23-23c10.19-3.91,24.86.86,36-3,5.52-1.91,16.68-8.67,19-14,1.06-2.42.45-7.3,1-9C339.8,111.27,341.76,111.64,344,110Z" fill-rule="evenodd"/>
  </g>
  <g id="Layer_5" data-name="Layer 5" style="isolation: isolate" fill="transparent">
    <path d="M166,187c4.62,6.36,2.75,20.19,2,29a113.36,113.36,0,0,1-37,5l-17-1c-10.33,1.95-35,.8-47-3H56c-8.5-1.93-19.11-2.28-25-7-.8-1.18-.77-1.68-1-4,5-2.59,14.16-4.46,20-6H64c14.51-5.15,38.06-10.86,55-10,.67,2.33,1.33,4.67,2,7a10.92,10.92,0,0,1,3,2c12.76,1.15,20.47-4,30-8C157.87,189.39,163.88,190.37,166,187Z" fill-rule="evenodd"/>
  </g>
  <g id="Layer_6" data-name="Layer 6" style="isolation: isolate" fill="transparent">
    <path d="M376,70c16.51,3.22,36.49,5.67,55,8-.25,4.1,2.43,7.07,5,12h-3c-5.13-7.61-27.34-11.15-38-14C388.39,74.23,378.89,75.38,376,70Z" fill-rule="evenodd"/>
    <path d="M445,99c6.13,2.13,8.93,8.58,14,12v1c-6.18,2.09-11.6,8.66-17,12l-34,16c-7.38-5.54-20-7.18-21-19h2C402.75,136.64,442.7,111.53,445,99Z" fill-rule="evenodd"/>
    <path d="M433,176h3c.39-8.23.85-13-4-18-2.72-2.79-3,.42-4-5,8.72-4.67,17.09-10.56,26-16,5.68-3.47,9.05-12,15-15,2.78,8.23,11.18,14,15,21,.33,3,.67,6,1,9,4.8,17.88,5.8,37.63,6,61-2.84,1.77-5.37,5.54-8,7-7.67,4.26-17.61,2.61-27,5-22.68,5.77-53,8.37-79,9v-2c2.91-4.16-1.06-1.9,0-7,.34-1.64,5.52-12.26,7-15,5.22-9.66,37.61-25.24,49-31Z" fill-rule="evenodd"/>
  </g>
  <g id="Layer_7" data-name="Layer 7" style="isolation: isolate" fill="transparent">
    <path d="M286,47c9.59.52,4.73,3.12,9,6h6c5.42,2.49,5.7,3.06,13,4,2.17,6.42,1.08,17.86,1,26-2.93,4.59-3.86,14.71-5,20-5.1.64-7.54,2.71-10,1-1.45-1.27-2.42-4-4-5-6.82-4.33-21.16-7.08-23-16,2.29-3.11,1.44-6.7,3-11C278.88,64.05,282.64,55.08,286,47Z" fill-rule="evenodd"/>
    <path d="M324,59c14.9,2.91,29.14,7.7,44,12,14.08,4.07,27.89,5.06,41,9l10,1c1.49.61,1.86,3.39,3,4,3.44,1.84,7-.12,10,2,.33,1,.67,2,1,3,3.38,2.59,9.89,4.27,12,8,.74,1.22.14,1,0,4-9.63,6.53-15.65,15.34-27,21-12,6-25-1.19-33-5l-5,1c-8.66-3.31-18.43-3.52-27-8-5.11-2.67-11.59.46-16,1l-22-6a18.94,18.94,0,0,1-3-4c4-5.92,2.44-14.44,5-22C319.14,73.68,322.88,66.67,324,59Z" fill-rule="evenodd"/>
  </g>
  <g id="Layer_8" data-name="Layer 8" style="isolation: isolate" fill="transparent">
    <path d="M310,51v3c-2.39.84-1.64.4-3,2-3.6-1-5.6-2.76-12-3,.2-3.35-.19-6,1-8,5.62-20.43,42.25-21.82,64-16,28.24,7.56,49.31,33.22,77,41h28c2.23,3.33,3.69,3.19,4,9-2.9,4.92,3.65,12.1,5,17,4.18,15.17,8.62,31.17,11,47h-2v-1c-5.61-2.92-11.49-17-15-23-2.13-3.66-7.54-6.44-11-9-4.81-3.56-7.5-10.24-12-14-2.23-1.86-5.22-.74-7-3-4.31-5.48-5.14-13.89-10-15-6-3.8-15.69.13-24-2-1.17-.3-4.39-2.78-5-3H387c-2-.73-6.41-4.87-10-4l-3,3c-7.9-.4-21.86-5.28-30-8-6.21-2.07-6.79-5.84-11-9C327.55,50.91,319.58,51.11,310,51Z" fill-rule="evenodd"/>
    <path d="M314,54c2.72,0,4.6,0,6,1,2.72.88,2.94,1.71,5,3-5.5,7.82-13.14,39.6-11,48h-2c-.77-.68-2.23-1.31-3-2l-1-1C316.72,98.33,315.08,66.88,314,54Z" fill-rule="evenodd"/>
    <path d="M249,104c3,.46,7.13,0,9,1l-1,1c-3.43,1.82-9.53,2.64-13,5-5.39,3.66-2.44,6.92-11,11v-2c2.6-2.65,4-6.76,7-9C243.47,108.4,246.55,107.61,249,104Z" fill-rule="evenodd"/>
    <path d="M190,155c-.45,7.74,1.57,15.58,10,17,2.06-3.09,3.46-2.93,4-8,2.89-4.65-1.62-8.57-1-11,1-4.59,2.91-5.86,5-9,4.18,2.58,5,4.8,12,5,2.07-2.92,1.8.2,3-3-2.47-2.15-2.19-6.2-2-11,2.67-.92,6.93-1.05,11-1,1.92,1.77,3.14,1.9,7,2,.33,3,.67,6,1,9,2.79,1.84,2.83,3.19,7,4,4.12-4.33,5.1,0,6-6-2.7-2-3.45-6-5-9,5.31-4.37.8-11.26,11-13v3c3.09,2.06,2.93,3.46,8,4,1.07.75.95.6,3,1,.33-1,.67-2,1-3,1.14-1.69,1.07-4.9,1-8-4.23-2.75-4.08-4.65-4-11,4.45-.45,6.67-3.52,10-3,6.29,1,18.53,7.68,26,4,3.1,1.82,8.24,5.88,12,7,6.28,1.88,10.87-6.87,17-5,4.06,1.24,4.07,4.42,4,10-2.95,2-4.14,6.11-7,8l-5,1c-2.28,1-4.79,4.17-7,5-10.11,3.78-26.15-.72-36,3-10.81,4.08-14.06,17.15-23,23-8.33,5.45-20.85,1.59-32,5-7.85,2.4-12.71,11.74-19,16-7,4.72-18.06,4-30,4h-9l1,2c-10.18,3.9-41.82,15.35-49,9-1-1.55-1-4.09-1-7,3-2,5.72-5.4,9-7l7-1,9-10h3c7.41-4.65,11-14.75,20-18l-1,1c.4,2.27.92,1.08,0,3-3.15,2.93-6.37,3.32-8,8h1c1.51.76,3.64.26,6,1-.68,5.31.51,7.27,8,7,1.94-4.49,1.47-11.14,4-15C180.8,155.25,184.15,154.89,190,155Z" fill-rule="evenodd"/>
    <path d="M152,169c-3.39,4-6.6,2.43-7,10-2.53,2.26-1.64,2.44-1,6a14.17,14.17,0,0,0,4,1c2.76-6,4.78-11.71,7-17Z" fill-rule="evenodd"/>
  </g>
  <g id="Layer_9" data-name="Layer 9" style="isolation: isolate" fill="transparent">
    <path d="M267,106c1.31,8.55,6.17,11,4,22a14.17,14.17,0,0,1-4,1c-1.18-.8-1.68-.77-4-1-1.84-2.79-3.19-2.83-4-7h-3c-2.4,3.3-4.35,2.5-5,8,.34,1-1.2,6-1,8,.34,3.46,2.57,5.73,3,10-2.07,1.28-2.3,2.08-5,3-1.18-.8-1.68-.77-4-1-3.54-5.65-7.72-10.25-12-15H222a14.17,14.17,0,0,0-1,4c2.59,3.25,3.49,7.86,1,11-1.07.75-.95.6-3,1-2.16-1.62-10.79-5.29-11-5a50.92,50.92,0,0,0-5,3s1,16,1,20c-2.79,1.84-2.83,3.19-7,4-4.27-6.23-7.42-7.79-7-17-22.22.33-4.75,17.15-22,18-1.48-2.67-4.67-7.21-7-6-2.49,1.5-6.43,3.82-7,5-1.61,2.33-1.85,9.51-3,13l-9,1q1-6,2-12c5.29-2.35,22.9-14.82,25-19-1.62-1.35-1.12-.64-2-3,4.73-3.2,5.52-5.93,14-6,2.53-1.78,6.76-2,11-2v-3c3.29-2.15,6.25-6.61,10-8h7l1-3c2-1.63,7-5.24,9-6,6.42-2.46,15.73-.87,20-4l2-6c2-2.38,16.74-6.88,14-9,2.26-5.06,12.35-16,18-14h1c-1.74,3.14-3.34,5.58-4,10l3,3C269.46,104.72,270.52,105.23,267,106Z" fill-rule="evenodd"/>
  </g>
  <g id="Layer_10" data-name="Layer 10" style="isolation: isolate" fill="transparent">
    <path d="M339,6c25.78,4.64,54.5,5.19,53,37l-1,1c-8.06-2.08-12.46-8.09-19-11-12.35-5.5-42.88-9.09-52-6V24C326.42,19.77,332.78,11.41,339,6Z" fill-rule="evenodd"/>
    <path d="M274,88c11.32,1.85,23.95,12.19,29,21h-8c-4,2.52-24.48-5.55-25-12C273.13,93.73,272.8,91.44,274,88Z" fill-rule="evenodd"/>
  </g>
  <g id="Layer_11" data-name="Layer 11" style="isolation: isolate" fill="transparent">
    <path d="M310,51c12.61-.57,27.85,1.6,29,12h-1c-2.47-1.66-5.64-.88-9-2-2.76-.92-5.67-4.28-8-5l-3,1-2-2c-3.9-1-5,1.59-9,2V55C308.62,53.75,309,52.9,310,51Z" fill-rule="evenodd"/>
    <path d="M306,103c3.5,1,17.71,4.68,20,7h-1c-1.87,3.33-4.09,4.64-9,5-5.13-4.54-12.44-3.62-15-11C304,104.68,303.82,105.34,306,103Z" fill-rule="evenodd"/>
  </g>
  <g id="Shadow_Image" data-name="Shadow Image">
    <image id="Shadow_Image-2" data-name="Shadow Image" width="500" height="318" transform="translate(0 3)" xlink:href="white_shoes1.png"/>
  </g>
</svg>
